<svg width="30" height="20" viewBox="0 0 30 20" fill="none" xmlns="http://www.w3.org/2000/svg">
<path d="M29.3719 3.13581C29.2021 2.52999 28.8713 1.9815 28.4146 1.54867C27.9451 1.10253 27.3696 0.783394 26.7425 0.621386C24.3956 0.00277907 14.9927 0.00277921 14.9927 0.00277921C11.0728 -0.0418197 7.15384 0.154337 3.25795 0.590144C2.63083 0.76412 2.05643 1.09039 1.58584 1.53992C1.12344 1.98482 0.78852 2.53345 0.61356 3.13456C0.193273 5.39871 -0.0109306 7.69768 0.00370099 10.0005C-0.0112955 12.3012 0.192407 14.5994 0.61356 16.8664C0.784771 17.465 1.11844 18.0111 1.58209 18.4523C2.04573 18.8934 2.6231 19.2121 3.25795 19.3808C5.63615 19.9982 14.9927 19.9982 14.9927 19.9982C18.9177 20.0428 22.8416 19.8467 26.7425 19.4108C27.3696 19.2488 27.9451 18.9297 28.4146 18.4835C28.877 18.0424 29.2057 17.4937 29.3707 16.8964C29.8019 14.6331 30.0116 12.3332 29.9968 10.0292C30.0292 7.71551 29.8198 5.40474 29.3719 3.13456V3.13581ZM12.0034 14.2795V5.72271L19.8266 10.0017L12.0034 14.2795Z" fill="#8D86C9"/>
</svg>
